# xmcd CD database file
#
# Track frame offsets:
#	150
#	11484
#	23243
#	38214
#	54819
#	65089
#	76948
#	89323
#	98960
#	110934
#	125790
#	137666
#
# Disc length: 1941 seconds
#
# Revision: 0
# Processed by: cddbd v1.5.2PL0 Copyright (c) Steve Scherf et al.
# Submitted via: CDex 1.51
#
DISCID=a007930c
DTITLE=kenny rogers etc. - gigantes del country
DYEAR=1900
DGENRE=Country
TTITLE0=Lynn Anderson-The rose garden
TTITLE1=Donna Fargo-The happiest girl in the USA
TTITLE2=Kenny Rogers-for the good times
TTITLE3=Waylon Jennings-Mean old greyhound bus
TTITLE4=Patsy Cline-Pick me up on your way down
TTITLE5=Charlie Rich-Behind closed doors
TTITLE6=Tammy wynette-Stand by your man
TTITLE7=Freddy Fender-before that next teardrop falls
TTITLE8=Bobby Bare-Tequila Sheila
TTITLE9=Glen Campbell-Rhinestone cowboy
TTITLE10=Johnny Cash-Give my love to rose
TTITLE11=Barbara Fairchild-gotta travel on
EXTD=
EXTT0=
EXTT1=
EXTT2=
EXTT3=
EXTT4=
EXTT5=
EXTT6=
EXTT7=
EXTT8=
EXTT9=
EXTT10=
EXTT11=
PLAYORDER=
